# xmcd
# Copyright (C) 1995-1998 Ti Kan
#
# Track frame offsets:
#       150
#       21715
#       41427
#
# Disc length: 789 seconds
#
# Revision: 0
# Processed by: cddbd v1.5.2PL0 Copyright (c) Steve Scherf et al.
# Submitted via: CD-Import v1.0
#
DISCID=21031303
DTITLE=Div - 
DYEAR=1900
DGENRE=
TTITLE0=Ravel
TTITLE1=Prokofiev
TTITLE2=Pesenti
EXTD=
EXTT0=
EXTT1=
EXTT2=
PLAYORDER=
